<svg xmlns="http://www.w3.org/2000/svg" xmlns:xlink="http://www.w3.org/1999/xlink" viewBox="0 0 128.87 128.87">
  <defs>
    <radialGradient id="b0327b11-a8be-45da-891b-3bf04b7733f5" cx="64.46" cy="64.43" r="29" gradientUnits="userSpaceOnUse">
      <stop offset="0.47" stop-color="#fff"/>
      <stop offset="0.57" stop-color="#fef2d0"/>
      <stop offset="0.78" stop-color="#fcd25c"/>
      <stop offset="0.94" stop-color="#fab900"/>
    </radialGradient>
  </defs>
  <g id="a7b1c99d-a075-4027-98da-679affbde520" data-name="Layer 2">
    <g id="ab98c4fe-b230-49ae-915a-6f175214d509" data-name="Asc/desc">
      <g id="ff09da0c-fa31-405a-98c6-33d16cbfe94f" data-name="Test Dany 4">
        <g id="e275477a-33c7-4304-ab8c-57e6fdcddb16" data-name="Br des - copie 2">
          <g id="b6b92aff-e53c-4c2f-a515-0178af88fb65" data-name="Calque 29">
            <circle cx="64.43" cy="64.43" r="64.43" style="fill: #fff"/>
            <circle cx="64.43" cy="64.98" r="63.25" style="fill: none;stroke: #fab900;stroke-linecap: round;stroke-miterlimit: 10;stroke-width: 1.2000000000000002px;stroke-dasharray: 0.40813717246055603,4.081371784210205;opacity: 0.9"/>
            <g>
              <circle cx="64.5" cy="64.43" r="60.15" style="fill: none;stroke: #fab900;stroke-linecap: round;stroke-miterlimit: 10"/>
              <g style="opacity: 0.9888888888061047">
                <path d="M64.49,7.83H65A56.61,56.61,0,0,1,64.51,121H64A56.61,56.61,0,0,1,64.49,7.83m0-.23h0A56.83,56.83,0,0,0,64,121.26h.54a56.82,56.82,0,0,0,40.55-96.63,56.44,56.44,0,0,0-40-17Z" style="fill: #fab900"/>
                <circle cx="64.5" cy="64.43" r="56.61" style="fill: none;stroke: #fab900;stroke-linecap: round;stroke-miterlimit: 10;stroke-width: 0.8888888880610465px"/>
              </g>
              <g style="opacity: 0.9777777777186463">
                <path d="M64.49,11.37H65a53.06,53.06,0,0,1-.49,106.12H64a53.06,53.06,0,0,1,.49-106.12m0-.44h0a53.51,53.51,0,0,0-.49,107h.51a53.51,53.51,0,0,0,.49-107Z" style="fill: #fab900"/>
                <circle cx="64.5" cy="64.43" r="53.06" style="fill: none;stroke: #fab900;stroke-linecap: round;stroke-miterlimit: 10;stroke-width: 0.7777777771864618px"/>
              </g>
              <g style="opacity: 0.9666666666311877">
                <path d="M64.49,14.92H65a49.52,49.52,0,0,1-.45,99H64a49.52,49.52,0,0,1,.45-99m0-.67h0A50.18,50.18,0,0,0,64,114.61h.48A50.19,50.19,0,0,0,65,14.25Z" style="fill: #fab900"/>
                <circle cx="64.5" cy="64.43" r="49.52" style="fill: none;stroke: #fab900;stroke-linecap: round;stroke-miterlimit: 10;stroke-width: 0.666666666311877px"/>
              </g>
              <g style="opacity: 0.9555555555437292">
                <path d="M64.49,18.46h.44a46,46,0,0,1-.42,91.95h-.44a46,46,0,0,1,.42-91.94m0-.89h0a46.86,46.86,0,0,0-.43,93.72h.45a46.87,46.87,0,0,0,.43-93.73Z" style="fill: #fab900"/>
                <circle cx="64.5" cy="64.43" r="45.97" style="fill: none;stroke: #fab900;stroke-linecap: round;stroke-miterlimit: 10;stroke-width: 0.5555555554372922px"/>
              </g>
              <g style="opacity: 0.9444444444562707">
                <path d="M64.49,22h.41a42.43,42.43,0,0,1-.39,84.85H64.1A42.43,42.43,0,0,1,64.49,22m0-1.11h0a43.54,43.54,0,0,0-.4,87.08h.42a43.54,43.54,0,0,0,.4-87.08Z" style="fill: #fab900"/>
                <circle cx="64.5" cy="64.43" r="42.43" style="fill: none;stroke: #fab900;stroke-linecap: round;stroke-miterlimit: 10;stroke-width: 0.4444444445627075px"/>
              </g>
              <g style="opacity: 0.9333333333688123">
                <path d="M64.49,25.55h.37a38.89,38.89,0,0,1-.35,77.77h-.37a38.89,38.89,0,0,1,.35-77.77m0-1.34h0a40.22,40.22,0,0,0-.37,80.44h.39a40.22,40.22,0,0,0,.37-80.43Z" style="fill: #fab900"/>
                <circle cx="64.5" cy="64.43" r="38.89" style="fill: none;stroke: #fab900;stroke-linecap: round;stroke-miterlimit: 10;stroke-width: 0.3333333336881228px"/>
              </g>
              <g style="opacity: 0.9222222222813539">
                <path d="M64.49,29.09h.34a35.34,35.34,0,0,1-.32,70.68h-.34a35.34,35.34,0,0,1,.32-70.68m0-1.55h0a36.9,36.9,0,0,0-.34,73.79h.36a37,37,0,0,0,36.88-36.55A36.89,36.89,0,0,0,64.84,27.54Z" style="fill: #fab900"/>
                <circle cx="64.5" cy="64.43" r="35.34" style="fill: none;stroke: #fab900;stroke-linecap: round;stroke-miterlimit: 10;stroke-width: 0.2222222228135381px"/>
              </g>
              <g style="opacity: 0.9111111111938953">
                <path d="M64.49,32.64h.31a31.8,31.8,0,0,1-.29,63.59H64.2a31.8,31.8,0,0,1,.29-63.59m0-1.78h0A33.67,33.67,0,0,0,30.93,64.12,33.58,33.58,0,0,0,64.19,98h.32a33.58,33.58,0,0,0,.3-67.15Z" style="fill: #fab900"/>
                <circle cx="64.5" cy="64.43" r="31.8" style="fill: none;stroke: #fab900;stroke-linecap: round;stroke-miterlimit: 10;stroke-width: 0.1111111119389534px"/>
              </g>
              <g style="opacity: 0.9">
                <path d="M64.49,36.18h.27a28.26,28.26,0,0,1-.26,56.51h-.26a28.25,28.25,0,0,1,.25-56.5m0-2h0a30.25,30.25,0,0,0-.27,60.5h.28a30.26,30.26,0,0,0,.28-60.51Z" style="fill: #fab900"/>
              </g>
            </g>
            <circle cx="64.46" cy="64.43" r="29" style="fill: url(#b0327b11-a8be-45da-891b-3bf04b7733f5)"/>
          </g>
        </g>
      </g>
    </g>
  </g>
</svg>
