<svg width="1920" height="608" viewBox="0 0 1920 608" fill="none" xmlns="http://www.w3.org/2000/svg">
<path fill-rule="evenodd" clip-rule="evenodd" d="M1824.18 0.915711C1824.18 0.913385 1824.18 0.912236 1824.27 0.999828C1824.36 1.08742 1824.36 1.08863 1824.36 1.09103L1824.34 1.10171L1824.3 1.14417L1824.14 1.31288C1823.99 1.46233 1823.76 1.6854 1823.47 1.98009C1822.87 2.56946 1821.99 3.44527 1820.8 4.59137C1818.44 6.88356 1814.89 10.2569 1810.18 14.5822C1800.76 23.2329 1786.68 35.6916 1768.04 50.9249C1730.74 81.3916 1675.17 122.957 1602.07 167.355C1455.88 256.15 1239.58 356.275 959.167 401.595C749.044 435.559 489.246 432.155 281.985 420.261C178.353 414.315 87.8528 406.245 23.2609 399.662C-9.03508 396.371 -34.8541 393.451 -52.5993 391.354C-61.4719 390.306 -68.326 389.463 -72.9621 388.883C-75.2801 388.592 -77.0436 388.368 -78.2276 388.215C-78.8196 388.139 -79.2667 388.081 -79.5659 388.042L-79.9033 387.998L-79.988 387.987L-80.0092 387.984C-80.0139 387.984 -80.0163 387.983 -80 387.86C-79.9836 387.736 -79.9813 387.736 -79.9766 387.737L-79.9554 387.739L-79.8708 387.75L-79.5336 387.794C-79.2346 387.833 -78.7876 387.891 -78.1957 387.967C-77.012 388.12 -75.2487 388.344 -72.931 388.635C-68.2955 389.215 -61.442 390.058 -52.57 391.106C-34.826 393.203 -9.00828 396.122 23.2862 399.414C87.8753 405.996 178.371 414.065 281.999 420.012C489.256 431.905 749.032 435.307 959.127 401.348C1239.51 356.034 1455.77 255.923 1601.94 167.141C1675.03 122.75 1730.59 81.1916 1767.88 50.7313C1786.52 35.5012 1800.6 23.0457 1810.01 14.3981C1814.72 10.0743 1818.26 6.70249 1820.63 4.41179C1821.81 3.26644 1822.7 2.39137 1823.29 1.80273C1823.59 1.50841 1823.81 1.2857 1823.96 1.13661L1824.13 0.968447L1824.17 0.926253L1824.18 0.915711ZM1835.1 36.137C1835.11 36.1348 1835.11 36.1337 1835.19 36.2357C1835.23 36.2806 1835.25 36.306 1835.26 36.3205C1835.28 36.3388 1835.28 36.3397 1835.27 36.341L1835.26 36.351L1835.21 36.391L1835.02 36.5499C1834.92 36.6326 1834.79 36.7392 1834.64 36.8695L1834.26 37.1782C1833.58 37.7332 1832.57 38.558 1831.22 39.6374C1828.53 41.7961 1824.52 44.973 1819.23 49.0465C1808.65 57.1933 1792.94 68.9261 1772.45 83.2708C1731.47 111.96 1671.36 151.097 1594.81 192.89C1441.72 276.475 1222.9 370.684 960.012 413.177C763.014 445.013 503.675 442.153 293.593 431.336C188.551 425.927 95.8203 418.529 29.3503 412.482C-3.88467 409.459 -30.5546 406.774 -48.9159 404.845C-58.0965 403.88 -65.2 403.105 -70.0084 402.57C-72.4126 402.303 -74.243 402.096 -75.4724 401.956C-76.0871 401.886 -76.5516 401.832 -76.8623 401.796L-77.2128 401.756L-77.3009 401.746L-77.3229 401.743C-77.3278 401.743 -77.3303 401.742 -77.3149 401.61C-77.2995 401.478 -77.2971 401.479 -77.2922 401.479L-77.2702 401.482L-77.1822 401.492L-76.8319 401.533C-76.5212 401.568 -76.0569 401.622 -75.4423 401.692C-74.2132 401.832 -72.383 402.039 -69.9791 402.306C-65.1712 402.841 -58.0682 403.616 -48.8881 404.581C-30.528 406.51 -3.85925 409.195 29.3744 412.218C95.8418 418.264 188.569 425.662 293.607 431.07C503.686 441.888 763.001 444.746 959.97 412.915C1222.82 370.428 1441.61 276.232 1594.68 192.657C1671.22 150.869 1731.33 111.738 1772.3 83.0532C1792.79 68.7109 1808.49 56.9806 1819.07 48.836C1824.36 44.7637 1828.37 41.5879 1831.06 39.4302C1832.4 38.3514 1833.41 37.5272 1834.09 36.9727C1834.43 36.6954 1834.68 36.4856 1834.85 36.3452L1835.04 36.1867L1835.09 36.147L1835.1 36.137ZM1846.12 71.472C1846.04 71.3565 1846.03 71.3575 1846.03 71.3596L1846.02 71.3689L1845.96 71.4062L1845.75 71.555C1845.56 71.6868 1845.27 71.8837 1844.89 72.1438C1844.13 72.6642 1842.99 73.4377 1841.49 74.45C1838.48 76.4745 1834 79.4544 1828.13 83.2752C1816.38 90.9169 1799.05 101.922 1776.72 115.377C1732.07 142.285 1667.41 178.99 1587.43 218.172C1427.45 296.535 1206.16 384.806 960.858 424.44C777 454.169 518.127 451.868 305.21 442.133C198.754 437.266 103.789 430.541 35.4389 425.033C1.26373 422.278 -26.2579 419.828 -45.2356 418.067C-54.7245 417.186 -62.0774 416.477 -67.058 415.989C-69.5483 415.745 -71.4455 415.556 -72.7202 415.427C-73.3575 415.363 -73.8391 415.315 -74.1615 415.282L-74.525 415.245L-74.6162 415.235L-74.6391 415.233C-74.6442 415.233 -74.6467 415.232 -74.6611 415.372C-74.6755 415.512 -74.6729 415.512 -74.6678 415.513L-74.6449 415.515L-74.5536 415.525L-74.1899 415.562C-73.8675 415.594 -73.3857 415.643 -72.7483 415.707C-71.4734 415.835 -69.576 416.025 -67.0854 416.269C-62.1043 416.757 -54.751 417.466 -45.2616 418.347C-26.2829 420.108 1.23988 422.558 35.4164 425.313C103.769 430.822 198.737 437.547 305.198 442.414C518.115 452.149 777.013 454.451 960.903 424.717C1206.24 385.078 1427.56 296.795 1587.55 218.424C1667.54 179.238 1732.2 142.53 1776.87 115.618C1799.2 102.161 1816.53 91.1543 1828.28 83.511C1834.15 79.6893 1838.63 76.7087 1841.64 74.6833C1843.15 73.6706 1844.29 72.8968 1845.05 72.376C1845.43 72.1157 1845.72 71.9186 1845.91 71.7866L1846.12 71.6376L1846.18 71.6001L1846.19 71.5907C1846.2 71.5886 1846.2 71.5875 1846.12 71.472ZM1856.95 106.582C1856.95 106.582 1856.95 106.581 1856.95 106.589C1856.96 106.596 1856.97 106.61 1856.98 106.637L1857.03 106.708C1857.1 106.836 1857.1 106.837 1857.09 106.839L1857.08 106.848L1857.02 106.883L1856.78 107.022C1856.57 107.145 1856.25 107.329 1855.82 107.573C1854.98 108.059 1853.72 108.782 1852.05 109.728C1848.72 111.62 1843.77 114.405 1837.32 117.975C1824.4 125.116 1805.45 135.398 1781.28 147.968C1732.94 173.106 1663.74 207.39 1580.31 243.974C1413.43 317.142 1189.6 399.514 961.748 436.321C790.99 463.916 532.544 462.155 316.797 453.497C208.921 449.167 111.717 443.114 41.4822 438.142C6.36464 435.656 -22.0107 433.441 -41.6068 431.848C-51.4049 431.051 -59.0081 430.409 -64.1619 429.967C-66.7387 429.746 -68.7032 429.574 -70.0236 429.458C-70.6837 429.4 -71.1828 429.356 -71.5169 429.326L-71.8938 429.293L-71.9884 429.284L-72.0122 429.282C-72.0174 429.282 -72.0201 429.281 -72.0068 429.134C-71.9935 428.986 -71.9909 428.986 -71.9856 428.986L-71.9619 428.989L-71.8673 428.997L-71.4906 429.031C-71.1566 429.06 -70.6576 429.105 -69.9976 429.163C-68.6774 429.279 -66.7131 429.45 -64.1365 429.671C-58.9831 430.113 -51.3803 430.755 -41.5828 431.552C-21.9876 433.145 6.38674 435.36 41.5032 437.846C111.736 442.817 208.937 448.871 316.809 453.2C532.557 461.858 790.976 463.618 961.701 436.028C1189.51 399.227 1413.33 316.865 1580.19 243.702C1663.62 207.121 1732.81 172.84 1781.14 147.704C1805.31 135.136 1824.26 124.855 1837.17 117.716C1843.63 114.146 1848.57 111.362 1851.9 109.47C1853.57 108.524 1854.83 107.802 1855.68 107.315L1856.07 107.088L1856.63 106.765L1856.87 106.626L1856.93 106.591L1856.95 106.582ZM1867.95 141.944C1867.88 141.803 1867.88 141.804 1867.87 141.806L1867.86 141.814L1867.79 141.847L1867.53 141.976C1867.29 142.09 1866.94 142.261 1866.48 142.487C1865.55 142.939 1864.16 143.611 1862.33 144.49C1858.68 146.249 1853.27 148.836 1846.23 152.154C1832.15 158.789 1811.57 168.344 1785.56 180.022C1733.54 203.379 1659.8 235.23 1572.91 269.205C1399.13 337.155 1172.78 413.599 962.483 447.584C804.914 473.051 546.96 471.838 328.386 464.257C219.102 460.467 119.666 455.085 47.5514 450.65C11.4942 448.433 -17.7327 446.452 -37.9452 445.026C-48.0515 444.313 -55.9041 443.739 -61.2302 443.343C-63.8932 443.145 -65.9246 442.991 -67.2902 442.887C-67.973 442.835 -68.4893 442.795 -68.835 442.769L-69.2249 442.739L-69.3228 442.731L-69.3473 442.729C-69.3528 442.729 -69.3555 442.729 -69.3676 442.884C-69.3798 443.04 -69.377 443.04 -69.3716 443.041L-69.347 443.043L-69.249 443.05L-68.859 443.08C-68.5132 443.107 -67.9968 443.147 -67.3139 443.199C-65.9481 443.303 -63.9166 443.456 -61.2534 443.654C-55.9269 444.051 -48.0739 444.625 -37.9672 445.338C-17.7539 446.764 11.474 448.745 47.5323 450.962C119.649 455.397 219.087 460.779 328.375 464.57C546.946 472.15 804.93 473.365 962.532 447.893C1172.86 413.902 1399.24 337.449 1573.02 269.496C1659.92 235.519 1733.66 203.666 1785.69 180.308C1811.7 168.628 1832.28 159.073 1846.36 152.437C1853.4 149.119 1858.82 146.53 1862.47 144.772C1864.3 143.893 1865.68 143.221 1866.61 142.769L1867.28 142.442L1867.66 142.257L1867.93 142.127L1868 142.095L1868.01 142.087C1868.01 142.086 1868.01 142.086 1868.01 142.083C1868.01 142.081 1868.01 142.079 1868.01 142.075L1868.01 142.066C1868 142.048 1867.98 142.013 1867.95 141.944ZM1878.83 177.074C1878.84 177.096 1878.85 177.13 1878.87 177.18C1878.9 177.234 1878.91 177.269 1878.92 177.292C1878.93 177.332 1878.93 177.333 1878.93 177.334L1878.91 177.341L1878.84 177.371L1878.55 177.491C1878.29 177.597 1877.91 177.755 1877.4 177.964C1876.39 178.382 1874.88 179.003 1872.89 179.815C1868.91 181.441 1863.03 183.833 1855.41 186.899C1840.16 193.032 1817.95 201.862 1790.1 212.653C1734.39 234.236 1656.09 263.661 1565.75 295.034C1385.06 357.78 1156.16 428.317 963.378 459.475C818.907 482.824 561.375 482.157 339.974 475.653C229.271 472.401 127.597 467.691 53.5983 463.793C16.5989 461.844 -13.4816 460.098 -34.3123 458.839C-44.7277 458.21 -52.8306 457.703 -58.3297 457.352C-61.0792 457.177 -63.1778 457.042 -64.5891 456.95L-65.6793 456.878L-66.1858 456.845L-66.5891 456.818L-66.6904 456.812L-66.7158 456.81C-66.7214 456.81 -66.7242 456.81 -66.7133 456.646C-66.7024 456.482 -66.6996 456.482 -66.694 456.483L-66.6686 456.484L-66.5674 456.491L-66.1643 456.518C-65.807 456.541 -65.2733 456.576 -64.5677 456.622C-63.1567 456.714 -61.0582 456.85 -58.3088 457.025C-52.8101 457.375 -44.7075 457.883 -34.2925 458.512C-13.4626 459.77 16.6171 461.516 53.6155 463.465C127.612 467.363 229.284 472.074 339.984 475.325C561.39 481.829 818.89 482.495 963.325 459.151C1156.08 427.998 1384.95 357.468 1565.64 294.725C1655.98 263.353 1734.27 233.929 1789.98 212.347C1817.83 201.557 1840.04 192.727 1855.29 186.594C1862.91 183.528 1868.79 181.137 1872.76 179.512C1874.75 178.699 1876.26 178.078 1877.28 177.66C1877.79 177.451 1878.17 177.293 1878.42 177.187L1878.71 177.068L1878.79 177.038L1878.8 177.03C1878.81 177.029 1878.81 177.029 1878.83 177.074ZM1889.8 212.416C1889.74 212.254 1889.74 212.254 1889.73 212.256L1889.71 212.263L1889.63 212.29L1889.32 212.4C1889.04 212.497 1888.63 212.642 1888.08 212.834L1887.29 213.111L1885.85 213.612L1884.75 213.994L1883.2 214.534C1878.9 216.026 1872.55 218.221 1864.34 221.036C1847.93 226.665 1824.1 234.769 1794.4 244.671C1735.01 264.476 1652.17 291.473 1558.38 320.24C1370.79 377.774 1139.4 442.386 964.168 470.707C832.866 491.928 575.82 491.809 351.582 486.383C239.467 483.67 135.559 479.631 59.6795 476.269C21.7399 474.589 -9.19247 473.078 -30.6399 471.987C-41.3636 471.442 -49.716 471.001 -55.3875 470.697C-58.2233 470.545 -60.3888 470.427 -61.8453 470.347C-62.5736 470.307 -63.1247 470.277 -63.4936 470.256L-63.9099 470.233L-64.0145 470.227L-64.0407 470.226C-64.0465 470.226 -64.0494 470.225 -64.0591 470.397C-64.0687 470.569 -64.0657 470.569 -64.0599 470.569L-64.0337 470.571L-63.929 470.576L-63.5127 470.6C-63.1436 470.62 -62.5925 470.651 -61.8642 470.69C-60.4075 470.77 -58.2418 470.888 -55.4059 471.04C-49.7341 471.344 -41.3814 471.785 -30.6573 472.33C-9.20928 473.421 21.7238 474.932 59.6643 476.613C135.545 479.974 239.456 484.014 351.574 486.727C575.803 492.153 832.884 492.273 964.223 471.047C1139.48 442.722 1370.89 378.103 1558.48 320.568C1652.28 291.801 1735.12 264.803 1794.51 244.998C1824.21 235.095 1848.04 226.99 1864.46 221.361C1872.66 218.546 1879.01 216.351 1883.31 214.859C1885.46 214.113 1887.09 213.542 1888.19 213.159L1889.43 212.725L1889.75 212.615L1889.83 212.587L1889.85 212.58C1889.85 212.58 1889.85 212.579 1889.85 212.561L1889.84 212.536C1889.83 212.512 1889.82 212.475 1889.8 212.416ZM1900.6 247.482C1900.6 247.48 1900.61 247.479 1900.66 247.652C1900.71 247.824 1900.71 247.825 1900.7 247.826L1900.68 247.832L1900.6 247.857L1900.26 247.957L1898.92 248.353C1897.74 248.702 1895.98 249.221 1893.67 249.901C1889.05 251.259 1882.23 253.259 1873.44 255.822C1855.87 260.947 1830.41 268.327 1798.87 277.341C1735.8 295.37 1648.42 319.939 1551.18 346.102C1356.7 398.426 1122.79 457.126 965.052 482.618C846.845 501.728 590.231 502.156 363.188 497.809C249.662 495.635 143.523 492.268 65.7662 489.443C26.8876 488.031 -4.89581 486.755 -26.9595 485.831C-37.9914 485.37 -46.5934 484.996 -52.4374 484.738C-55.3594 484.609 -57.5919 484.509 -59.094 484.441C-59.845 484.408 -60.4134 484.382 -60.7941 484.364L-61.2236 484.345L-61.3315 484.34L-61.3586 484.338C-61.3646 484.338 -61.3676 484.338 -61.3593 484.158C-61.3511 483.979 -61.348 483.979 -61.342 483.979L-61.315 483.981L-61.2071 483.986L-60.7776 484.005C-60.3971 484.023 -59.8287 484.049 -59.0778 484.082C-57.5758 484.15 -55.3434 484.25 -52.4216 484.379C-46.5778 484.637 -37.9761 485.011 -26.9445 485.472C-4.88135 486.396 26.9013 487.672 65.7793 489.084C143.535 491.908 249.672 495.276 363.195 497.45C590.249 501.797 846.827 501.367 964.995 482.264C1122.71 456.774 1356.61 398.079 1551.09 345.755C1648.32 319.593 1735.7 295.024 1798.78 276.995C1830.31 267.981 1855.77 260.602 1873.34 255.477C1882.13 252.914 1888.95 250.915 1893.57 249.556L1896.12 248.804L1897.37 248.435L1898.82 248.008L1900.16 247.613L1900.49 247.513L1900.58 247.488L1900.6 247.482ZM1911.63 282.888C1911.58 282.706 1911.58 282.706 1911.57 282.707L1911.55 282.713L1911.46 282.736L1911.1 282.826L1909.67 283.183C1908.4 283.498 1906.51 283.966 1904.04 284.579C1899.1 285.804 1891.82 287.607 1882.45 289.918C1863.7 294.54 1836.62 301.194 1803.24 309.32C1736.48 325.572 1644.55 347.713 1543.86 371.271C1342.47 418.387 1106.03 471.168 965.837 493.83C860.764 510.805 604.625 511.782 374.733 508.514C259.792 506.879 151.418 504.184 71.7804 501.897C31.9614 500.754 -0.673683 499.713 -23.354 498.957C-34.6942 498.58 -43.5456 498.273 -49.562 498.062C-52.5702 497.956 -54.8697 497.873 -56.417 497.818L-57.5603 497.776L-58.1686 497.754L-58.6112 497.738L-58.7225 497.734L-58.7504 497.733C-58.7566 497.733 -58.7597 497.732 -58.7666 497.92C-58.7735 498.107 -58.7704 498.107 -58.7642 498.108L-58.7363 498.109L-58.625 498.113L-58.1823 498.129C-57.79 498.143 -57.2043 498.164 -56.4305 498.192C-54.8831 498.248 -52.5835 498.331 -49.5752 498.436C-43.5586 498.648 -34.7069 498.954 -23.3665 499.332C-0.685669 500.088 31.95 501.129 71.7697 502.272C151.409 504.559 259.784 507.254 374.728 508.889C604.606 512.157 860.784 511.182 965.897 494.201C1106.11 471.535 1342.55 418.752 1543.94 371.636C1644.64 348.078 1736.57 325.936 1803.33 309.684C1836.71 301.558 1863.79 294.904 1882.54 290.282C1891.91 287.971 1899.19 286.168 1904.13 284.943C1906.6 284.33 1908.49 283.862 1909.76 283.546L1911.19 283.19L1911.55 283.1L1911.64 283.077L1911.67 283.071C1911.67 283.071 1911.67 283.071 1911.67 283.064C1911.67 283.059 1911.67 283.05 1911.66 283.033C1911.66 283.007 1911.65 282.963 1911.63 282.888ZM1922.5 317.934C1922.51 317.933 1922.51 317.933 1922.55 318.124C1922.57 318.231 1922.58 318.278 1922.58 318.299L1922.58 318.303L1922.59 318.312L1922.58 318.315C1922.58 318.316 1922.58 318.317 1922.58 318.317L1922.56 318.322L1922.46 318.342L1922.07 318.422L1920.54 318.74C1919.19 319.021 1917.18 319.439 1914.55 319.985C1909.29 321.077 1901.54 322.684 1891.58 324.743C1871.68 328.862 1842.96 334.791 1807.74 342.029C1737.3 356.505 1640.82 376.22 1536.68 397.174C1328.39 439.081 1089.44 485.946 966.772 505.773C920.796 513.203 833.875 517.297 729.37 519.261C624.86 521.224 502.75 521.057 386.386 519.962C270.023 518.866 159.404 516.843 77.8769 515.093C37.1132 514.218 3.62218 513.411 -19.678 512.823C-31.328 512.529 -40.4304 512.29 -46.6202 512.124C-49.7151 512.041 -52.0819 511.977 -53.675 511.933C-54.4716 511.911 -55.0747 511.895 -55.4786 511.883L-55.9346 511.871L-56.0492 511.867L-56.0779 511.867C-56.0843 511.866 -56.0875 511.866 -56.082 511.671C-56.0765 511.476 -56.0733 511.476 -56.0669 511.476L-56.0382 511.477L-55.9236 511.48L-55.4678 511.493C-55.0638 511.504 -54.4608 511.521 -53.6643 511.543C-52.0713 511.586 -49.7046 511.651 -46.6098 511.734C-40.4201 511.9 -31.318 512.139 -19.6681 512.433C3.63161 513.02 37.1221 513.827 77.8853 514.702C159.412 516.452 270.028 518.476 386.39 519.571C502.752 520.667 624.858 520.834 729.362 518.87C833.872 516.906 920.765 512.812 966.71 505.387C1089.37 485.561 1328.31 438.698 1536.6 396.791C1640.75 375.837 1737.22 356.122 1807.66 341.646C1842.88 334.408 1871.6 328.48 1891.5 324.361C1901.46 322.301 1909.21 320.694 1914.47 319.602C1917.1 319.056 1919.11 318.639 1920.47 318.358L1922 318.04L1922.38 317.96L1922.48 317.939L1922.5 317.934ZM1933.47 353.36C1933.44 353.159 1933.44 353.16 1933.43 353.161L1933.41 353.165L1933.3 353.183L1932.89 353.254L1931.27 353.533L1924.9 354.625C1919.32 355.584 1911.1 356.994 1900.56 358.801C1879.49 362.416 1849.15 367.617 1812.09 373.965C1737.96 386.661 1636.94 403.944 1529.34 422.29C1314.15 458.982 1072.67 499.928 967.522 516.943C928.141 523.309 844.644 527.012 741.533 528.983C638.428 530.954 515.728 531.194 397.951 530.638C280.175 530.082 167.324 528.73 83.9162 527.517C42.2124 526.91 7.86971 526.338 -16.047 525.918C-28.0054 525.708 -37.3573 525.536 -43.7196 525.416C-46.9007 525.356 -49.3344 525.31 -50.9729 525.278L-52.8281 525.242L-53.2971 525.233L-53.415 525.23L-53.4446 525.23C-53.4511 525.229 -53.4544 525.229 -53.4585 525.432C-53.4625 525.636 -53.4592 525.636 -53.4526 525.636L-53.4231 525.636L-53.3051 525.639L-52.8361 525.648L-50.9807 525.684C-49.3422 525.716 -46.9084 525.763 -43.7272 525.822C-37.3648 525.942 -28.0127 526.114 -16.0542 526.324C7.86293 526.745 42.2061 527.316 83.9103 527.923C167.319 529.136 280.172 530.488 397.95 531.044C515.727 531.6 638.431 531.36 741.54 529.389C844.644 527.418 928.172 523.716 967.587 517.344C1072.73 500.329 1314.22 459.383 1529.41 422.69C1637.01 404.344 1738.03 387.062 1812.16 374.366C1849.22 368.018 1879.56 362.816 1900.63 359.202C1911.17 357.394 1919.39 355.984 1924.97 355.025L1931.33 353.933L1932.96 353.654L1933.37 353.584L1933.47 353.566L1933.5 353.561C1933.51 353.56 1933.51 353.56 1933.47 353.36ZM1944.36 388.388C1944.37 388.387 1944.37 388.387 1944.4 388.596C1944.41 388.67 1944.41 388.719 1944.42 388.749C1944.42 388.769 1944.42 388.781 1944.42 388.789C1944.42 388.805 1944.42 388.805 1944.42 388.806L1944.39 388.81L1944.28 388.825L1943.85 388.886L1942.12 389.126L1935.39 390.067C1929.48 390.892 1920.8 392.107 1909.68 393.663C1887.44 396.775 1855.47 401.253 1816.57 406.714C1738.76 417.637 1633.19 432.495 1522.14 448.239C1300.05 479.727 1056.05 514.754 968.432 528.916C935.582 534.226 855.446 537.534 753.741 539.511C652.028 541.488 528.725 542.134 409.526 542.117C290.327 542.1 175.233 541.419 89.9379 540.743C47.2904 540.404 12.0928 540.067 -12.4429 539.815C-24.7108 539.688 -34.3132 539.583 -40.8486 539.51C-44.1163 539.473 -46.6173 539.444 -48.3014 539.424L-50.2085 539.402L-50.6908 539.396L-50.8121 539.395L-50.8425 539.394C-50.8492 539.394 -50.8526 539.394 -50.8501 539.183C-50.8475 538.972 -50.8441 538.972 -50.8374 538.972L-50.807 538.973L-50.6857 538.974L-50.2035 538.98L-48.2965 539.003C-46.6125 539.022 -44.1115 539.051 -40.8439 539.088C-34.3085 539.161 -24.7063 539.267 -12.4386 539.393C12.0969 539.645 47.2941 539.983 89.9412 540.321C175.235 540.997 290.329 541.678 409.526 541.695C528.724 541.713 652.024 541.067 753.733 539.089C855.449 537.112 935.551 533.803 968.365 528.499C1055.99 514.337 1299.99 479.309 1522.08 447.821C1633.13 432.078 1738.7 417.219 1816.51 406.296C1855.42 400.835 1887.38 396.357 1909.62 393.245L1922.02 391.51C1927.38 390.76 1931.84 390.137 1935.33 389.649L1942.07 388.708L1943.79 388.468L1944.22 388.407L1944.33 388.392L1944.36 388.388ZM1955.32 423.831C1955.3 423.614 1955.29 423.614 1955.29 423.615L1955.26 423.618L1955.14 423.631L1954.68 423.682L1952.87 423.884L1945.76 424.673C1939.53 425.365 1930.38 426.384 1918.68 427.688C1895.27 430.297 1861.68 434.049 1820.93 438.623C1739.44 447.77 1629.32 460.202 1514.82 473.342C1285.83 499.622 1039.3 528.736 969.192 540.066C942.949 544.306 866.252 547.219 765.94 549.202C665.639 551.185 541.751 552.237 421.145 552.759C300.538 553.281 183.215 553.273 96.0429 553.134C52.4569 553.065 16.4088 552.963 -8.74277 552.878C-21.3186 552.836 -31.1702 552.798 -37.8779 552.77C-41.2318 552.756 -43.7996 552.745 -45.529 552.738L-47.4877 552.729L-47.9831 552.727L-48.1077 552.726L-48.1389 552.726C-48.1458 552.726 -48.1493 552.726 -48.1504 552.945C-48.1514 553.163 -48.1479 553.163 -48.141 553.163L-48.1097 553.164L-47.9851 553.164L-47.4897 553.167L-45.531 553.175C-43.8015 553.183 -41.2336 553.194 -37.8797 553.208C-31.1719 553.235 -21.3202 553.273 -8.74425 553.315C16.4076 553.4 52.4559 553.502 96.0422 553.572C183.215 553.71 300.539 553.719 421.146 553.197C541.754 552.675 665.644 551.622 765.949 549.639C866.244 547.657 942.981 544.744 969.261 540.498C1039.35 529.17 1285.87 500.058 1514.87 473.777C1629.37 460.637 1739.49 448.205 1820.98 439.058C1861.73 434.484 1895.32 430.732 1918.72 428.123C1930.43 426.819 1939.58 425.8 1945.81 425.108L1952.91 424.319L1954.73 424.117L1955.19 424.066L1955.31 424.053L1955.34 424.05C1955.34 424.049 1955.35 424.049 1955.32 423.831ZM1966.22 458.843C1966.22 458.842 1966.23 458.842 1966.25 459.068C1966.25 459.164 1966.26 459.219 1966.26 459.251C1966.26 459.294 1966.26 459.294 1966.25 459.294L1966.22 459.297L1966.1 459.307L1965.62 459.348L1963.71 459.511L1956.23 460.148C1949.68 460.707 1940.06 461.529 1927.77 462.581C1903.2 464.686 1867.99 467.711 1825.4 471.395C1740.22 478.762 1625.56 488.763 1507.61 499.298C1271.71 520.368 1022.67 543.569 970.107 552.102C960.241 553.697 936.969 555.123 903.816 556.4C870.656 557.677 827.594 558.805 778.139 559.8C679.227 561.791 554.733 563.25 432.703 564.311C310.672 565.373 191.103 566.036 102.042 566.434C57.5119 566.633 20.6084 566.766 -5.16248 566.849C-18.0479 566.891 -28.1502 566.919 -35.0312 566.938C-38.4716 566.948 -41.1068 566.954 -42.8818 566.959L-44.8924 566.964L-45.401 566.965L-45.5289 566.965L-45.561 566.965C-45.5681 566.965 -45.5717 566.965 -45.5722 566.739C-45.5728 566.512 -45.5692 566.512 -45.562 566.512L-45.53 566.512L-45.4021 566.512L-44.8935 566.51L-42.8829 566.505C-41.1079 566.501 -38.4728 566.494 -35.0324 566.485C-28.1515 566.466 -18.0493 566.437 -5.16394 566.396C20.6068 566.313 57.51 566.18 102.04 565.981C191.101 565.583 310.668 564.92 432.699 563.858C554.729 562.797 679.221 561.337 778.13 559.347C827.584 558.352 870.642 557.224 903.798 555.947C936.961 554.67 960.202 553.244 970.035 551.655C1022.62 543.119 1271.68 519.915 1507.57 498.847C1625.52 488.312 1740.18 478.311 1825.36 470.943C1867.95 467.26 1903.17 464.234 1927.73 462.13C1940.02 461.078 1949.64 460.256 1956.19 459.697L1963.67 459.06L1965.58 458.897L1966.06 458.856L1966.19 458.845L1966.22 458.843ZM1977.14 494.153L1977.14 494.111C1977.14 494.07 1977.13 494.07 1977.13 494.07L1977.1 494.072L1976.97 494.08L1976.46 494.112L1974.45 494.236L1966.61 494.721C1959.73 495.147 1949.64 495.773 1936.78 496.574C1911.04 498.176 1874.2 500.478 1829.77 503.274C1740.91 508.868 1621.71 516.444 1500.31 524.374C1378.91 532.305 1255.32 540.589 1157.7 547.599C1060.09 554.608 988.427 560.344 970.893 563.179L970.93 563.41L970.893 563.179C964.345 564.242 943.599 565.309 912.28 566.359C880.97 567.41 839.114 568.443 790.362 569.443C692.859 571.443 567.78 573.31 444.342 574.91C320.904 576.51 199.108 577.844 108.171 578.777C62.7025 579.244 24.9489 579.611 -1.4376 579.861C-14.6308 579.986 -24.9823 580.082 -32.0354 580.146C-35.562 580.179 -38.264 580.203 -40.0843 580.22L-42.1465 580.238L-42.6683 580.243L-42.7995 580.244L-42.8324 580.244C-42.8397 580.244 -42.8434 580.244 -42.8413 580.479C-42.8392 580.713 -42.8355 580.713 -42.8282 580.713L-42.7953 580.713L-42.6641 580.711L-42.1423 580.707L-40.0801 580.688C-38.2597 580.672 -35.5577 580.647 -32.0311 580.615C-24.9779 580.55 -14.6264 580.455 -1.43316 580.33C24.9534 580.08 62.7071 579.713 108.176 579.246C199.113 578.313 320.91 576.979 444.348 575.379C567.787 573.779 692.867 571.912 790.372 569.912C839.124 568.912 880.983 567.878 912.296 566.828C943.598 565.778 964.383 564.711 970.968 563.641C988.475 560.811 1060.11 555.077 1157.74 548.066C1255.35 541.057 1378.94 532.772 1500.34 524.842C1621.74 516.912 1740.94 509.336 1829.8 503.742C1874.23 500.945 1911.07 498.644 1936.81 497.042L1944.58 496.559C1949.23 496.27 1953.42 496.009 1957.13 495.779L1966.64 495.189L1974.48 494.704L1976.49 494.579L1977 494.548L1977.13 494.54L1977.16 494.538C1977.16 494.538 1977.17 494.538 1977.16 494.48C1977.16 494.446 1977.16 494.391 1977.15 494.304C1977.15 494.235 1977.15 494.187 1977.14 494.153ZM1988.09 529.297C1988.09 529.297 1988.1 529.297 1988.11 529.539C1988.12 529.781 1988.11 529.781 1988.11 529.781L1988.07 529.783L1987.94 529.788L1987.41 529.81L1985.3 529.895L1977.09 530.229L1964.36 530.747C1959.02 530.965 1952.84 531.217 1945.88 531.501C1918.98 532.599 1880.52 534.175 1834.25 536.083C1741.7 539.9 1617.95 545.049 1493.1 550.374C1368.25 555.699 1242.31 561.201 1145.38 565.726C1096.92 567.989 1055.72 570.007 1025.53 571.637C995.338 573.267 976.192 574.507 971.828 575.212C970.168 575.482 964.759 575.791 956.106 576.134C947.442 576.478 935.506 576.857 920.772 577.266C891.305 578.082 850.646 579.016 802.595 580.016C706.492 582.016 580.817 584.283 455.963 586.417C331.11 588.55 207.077 590.551 114.257 592.017C67.8476 592.751 29.2412 593.351 2.2373 593.768C-11.2647 593.976 -21.866 594.138 -29.0919 594.249C-32.7048 594.304 -35.4739 594.346 -37.3397 594.375L-39.4536 594.407L-39.9886 594.415L-40.1232 594.417L-40.1569 594.417C-40.1644 594.418 -40.1682 594.418 -40.1718 594.176C-40.1755 593.933 -40.1718 593.933 -40.1642 593.933L-40.1305 593.933L-39.996 593.931L-39.461 593.923L-37.3471 593.89C-35.4813 593.862 -32.7122 593.82 -29.0993 593.765C-21.8735 593.654 -11.2721 593.492 2.22983 593.283C29.2337 592.867 67.84 592.266 114.25 591.533C207.069 590.066 331.102 588.066 455.955 585.932C580.808 583.799 706.482 581.532 802.585 579.532C850.636 578.532 891.293 577.598 920.759 576.781C935.492 576.373 947.426 575.994 956.086 575.65C964.757 575.306 970.127 574.998 971.75 574.734C976.147 574.023 995.331 572.782 1025.51 571.153C1055.69 569.523 1096.9 567.505 1145.36 565.242C1242.28 560.717 1368.23 555.215 1493.08 549.89C1617.93 544.565 1741.68 539.416 1834.23 535.599C1880.5 533.691 1918.96 532.115 1945.87 531.017C1952.8 530.733 1958.97 530.482 1964.31 530.264L1966.57 530.172L1977.07 529.745L1985.28 529.411L1987.39 529.326L1987.92 529.304L1988.05 529.299L1988.09 529.297ZM1999 564.526L-37.5536 607.72L-37.543 608.22L1999.01 565.026L1999 564.526Z" fill="#999999"/>
<path fill-rule="evenodd" clip-rule="evenodd" d="M580.239 482.604C697.606 456.485 825.604 428 960 428C1094.4 428 1222.39 456.485 1339.76 482.604C1403.17 496.715 1463.47 510.135 1520 518C1635 534 1794 517 1946 472.026V613H1176H969H961H744H-26V472.026C126 517 285 534 400 518C456.532 510.135 516.834 496.715 580.239 482.604Z" fill="#0FC45E"/>
</svg>
