<svg width="1920" height="608" xmlns="http://www.w3.org/2000/svg" fill="none">

 <g>
  <title>Layer 1</title>
  <path stroke="none" id="svg_1" fill="#999999" d="m1824.18,0.91571c0,-0.00232 0,-0.00347 0.09,0.08412c0.09,0.08759 0.09,0.0888 0.09,0.0912l-0.02,0.01068l-0.04,0.04246l-0.16,0.16871c-0.15,0.14945 -0.38,0.37252 -0.67,0.66721c-0.6,0.58937 -1.48,1.46518 -2.67,2.61128c-2.36,2.29219 -5.91,5.66553 -10.62,9.99083c-9.42,8.6507 -23.5,21.1094 -42.14,36.3427c-37.3,30.4667 -92.87,72.0321 -165.97,116.4301c-146.19,88.795 -362.49,188.92 -642.903,234.24c-210.123,33.964 -469.921,30.56 -677.182,18.666c-103.632,-5.946 -194.1322,-14.016 -258.7241,-20.599c-32.29598,-3.291 -58.115,-6.211 -75.8602,-8.308c-8.8726,-1.048 -15.7267,-1.891 -20.3628,-2.471c-2.318,-0.291 -4.0815,-0.515 -5.2655,-0.668c-0.592,-0.076 -1.0391,-0.134 -1.3383,-0.173l-0.3374,-0.044l-0.0847,-0.011l-0.0212,-0.003c-0.0047,0 -0.0071,-0.001 0.0092,-0.124c0.0164,-0.124 0.0187,-0.124 0.0234,-0.123l0.0212,0.002l0.0846,0.011l0.3372,0.044c0.299,0.039 0.746,0.097 1.3379,0.173c1.1837,0.153 2.947,0.377 5.2647,0.668c4.6355,0.58 11.489,1.423 20.361,2.471c17.744,2.097 43.56172,5.016 75.8562,8.308c64.5891,6.582 155.0848,14.651 258.7128,20.598c207.257,11.893 467.033,15.295 677.128,-18.664c280.383,-45.314 496.643,-145.425 642.813,-234.207c73.09,-44.391 128.65,-85.9494 165.94,-116.4097c18.64,-15.2301 32.72,-27.6856 42.13,-36.3332c4.71,-4.3238 8.25,-7.69561 10.62,-9.98631c1.18,-1.14535 2.07,-2.02042 2.66,-2.60906c0.3,-0.29432 0.52,-0.51703 0.67,-0.66612l0.17,-0.16816l0.04,-0.0422l0.01,-0.01054zm10.92,35.22129c0.01,-0.0022 0.01,-0.0033 0.09,0.0987c0.04,0.0449 0.06,0.0703 0.07,0.0848c0.02,0.0183 0.02,0.0192 0.01,0.0205l-0.01,0.01l-0.05,0.04l-0.19,0.1589c-0.1,0.0827 -0.23,0.1893 -0.38,0.3196l-0.38,0.3087c-0.68,0.555 -1.69,1.3798 -3.04,2.4592c-2.69,2.1587 -6.7,5.3356 -11.99,9.4091c-10.58,8.1468 -26.29,19.8796 -46.78,34.2243c-40.98,28.6892 -101.09,67.8262 -177.64,109.6192c-153.09,83.585 -371.91,177.794 -634.798,220.287c-196.998,31.836 -456.337,28.976 -666.419,18.159c-105.042,-5.409 -197.7727,-12.807 -264.2427,-18.854c-33.23497,-3.023 -59.9049,-5.708 -78.2662,-7.637c-9.1806,-0.965 -16.2841,-1.74 -21.0925,-2.275c-2.4042,-0.267 -4.2346,-0.474 -5.464,-0.614c-0.6147,-0.07 -1.0792,-0.124 -1.3899,-0.16l-0.3505,-0.04l-0.0881,-0.01l-0.022,-0.003c-0.0049,0 -0.0074,-0.001 0.008,-0.133c0.0154,-0.132 0.0178,-0.131 0.0227,-0.131l0.022,0.003l0.088,0.01l0.3503,0.041c0.3107,0.035 0.775,0.089 1.3896,0.159c1.2291,0.14 3.0593,0.347 5.4632,0.614c4.8079,0.535 11.9109,1.31 21.091,2.275c18.3601,1.929 45.02885,4.614 78.2625,7.637c66.4674,6.046 159.1946,13.444 264.2326,18.852c210.079,10.818 469.394,13.676 666.363,-18.155c262.85,-42.487 481.64,-136.683 634.71,-220.258c76.54,-41.788 136.65,-80.919 177.62,-109.6038c20.49,-14.3423 36.19,-26.0726 46.77,-34.2172c5.29,-4.0723 9.3,-7.2481 11.99,-9.4058c1.34,-1.0788 2.35,-1.903 3.03,-2.4575c0.34,-0.2773 0.59,-0.4871 0.76,-0.6275l0.19,-0.1585l0.05,-0.0397l0.01,-0.01zm11.02,35.335c-0.08,-0.1155 -0.09,-0.1145 -0.09,-0.1124l-0.01,0.0093l-0.06,0.0373l-0.21,0.1488c-0.19,0.1318 -0.48,0.3287 -0.86,0.5888c-0.76,0.5204 -1.9,1.2939 -3.4,2.3062c-3.01,2.0245 -7.49,5.0044 -13.36,8.8252c-11.75,7.6417 -29.08,18.6468 -51.41,32.1018c-44.65,26.908 -109.31,63.613 -189.29,102.795c-159.98,78.363 -381.27,166.634 -626.572,206.268c-183.858,29.729 -442.731,27.428 -655.648,17.693c-106.456,-4.867 -201.421,-11.592 -269.7711,-17.1c-34.17517,-2.755 -61.6968,-5.205 -80.6745,-6.966c-9.4889,-0.881 -16.8418,-1.59 -21.8224,-2.078c-2.4903,-0.244 -4.3875,-0.433 -5.6622,-0.562c-0.6373,-0.064 -1.1189,-0.112 -1.4413,-0.145l-0.3635,-0.037l-0.0912,-0.01l-0.0229,-0.002c-0.0051,0 -0.0076,-0.001 -0.022,0.139c-0.0144,0.14 -0.0118,0.14 -0.0067,0.141l0.0229,0.002l0.0913,0.01l0.3637,0.037c0.3224,0.032 0.8042,0.081 1.4416,0.145c1.2749,0.128 3.1723,0.318 5.6629,0.562c4.9811,0.488 12.3344,1.197 21.8238,2.078c18.9787,1.761 46.50148,4.211 80.678,6.966c68.3526,5.509 163.3206,12.234 269.7816,17.101c212.917,9.735 471.815,12.037 655.705,-17.697c245.337,-39.639 466.657,-127.922 626.647,-206.293c79.99,-39.186 144.65,-75.894 189.32,-102.806c22.33,-13.457 39.66,-24.4637 51.41,-32.107c5.87,-3.8217 10.35,-6.8023 13.36,-8.8277c1.51,-1.0127 2.65,-1.7865 3.41,-2.3073c0.38,-0.2603 0.67,-0.4574 0.86,-0.5894l0.21,-0.149l0.06,-0.0375l0.01,-0.0094c0.01,-0.0021 0.01,-0.0032 -0.07,-0.1187zm10.83,35.11c0,0 0,-0.001 0,0.007c0.01,0.007 0.02,0.021 0.03,0.048l0.05,0.071c0.07,0.128 0.07,0.129 0.06,0.131l-0.01,0.009l-0.06,0.035l-0.24,0.139c-0.21,0.123 -0.53,0.307 -0.96,0.551c-0.84,0.486 -2.1,1.209 -3.77,2.155c-3.33,1.892 -8.28,4.677 -14.73,8.247c-12.92,7.141 -31.87,17.423 -56.04,29.993c-48.34,25.138 -117.54,59.422 -200.97,96.006c-166.88,73.168 -390.71,155.54 -618.562,192.347c-170.758,27.595 -429.204,25.834 -644.951,17.176c-107.876,-4.33 -205.08,-10.383 -275.3148,-15.355c-35.11756,-2.486 -63.4929,-4.701 -83.089,-6.294c-9.7981,-0.797 -17.4013,-1.439 -22.5551,-1.881c-2.5768,-0.221 -4.5413,-0.393 -5.8617,-0.509c-0.6601,-0.058 -1.1592,-0.102 -1.4933,-0.132l-0.3769,-0.033l-0.0946,-0.009l-0.0238,-0.002c-0.0052,0 -0.0079,-0.001 0.0054,-0.148c0.0133,-0.148 0.0159,-0.148 0.0212,-0.148l0.0237,0.003l0.0946,0.008l0.3767,0.034c0.334,0.029 0.833,0.074 1.493,0.132c1.3202,0.116 3.2845,0.287 5.8611,0.508c5.1534,0.442 12.7562,1.084 22.5537,1.881c19.5952,1.593 47.96954,3.808 83.086,6.294c70.2328,4.971 167.4338,11.025 275.3058,15.354c215.748,8.658 474.167,10.418 644.892,-17.172c227.809,-36.801 451.629,-119.163 618.489,-192.326c83.43,-36.581 152.62,-70.862 200.95,-95.998c24.17,-12.568 43.12,-22.849 56.03,-29.988c6.46,-3.57 11.4,-6.354 14.73,-8.246c1.67,-0.946 2.93,-1.668 3.78,-2.155l0.39,-0.227l0.56,-0.323l0.24,-0.139l0.06,-0.035l0.02,-0.009zm11,35.362c-0.07,-0.141 -0.07,-0.14 -0.08,-0.138l-0.01,0.008l-0.07,0.033l-0.26,0.129c-0.24,0.114 -0.59,0.285 -1.05,0.511c-0.93,0.452 -2.32,1.124 -4.15,2.003c-3.65,1.759 -9.06,4.346 -16.1,7.664c-14.08,6.635 -34.66,16.19 -60.67,27.868c-52.02,23.357 -125.76,55.208 -212.65,89.183c-173.78,67.95 -400.13,144.394 -610.427,178.379c-157.569,25.467 -415.523,24.254 -634.097,16.673c-109.284,-3.79 -208.72,-9.172 -280.8346,-13.607c-36.0572,-2.217 -65.2841,-4.198 -85.4966,-5.624c-10.1063,-0.713 -17.9589,-1.287 -23.285,-1.683c-2.663,-0.198 -4.6944,-0.352 -6.06,-0.456c-0.6828,-0.052 -1.1991,-0.092 -1.5448,-0.118l-0.3899,-0.03l-0.0979,-0.008l-0.0245,-0.002c-0.0055,0 -0.0082,0 -0.0203,0.155c-0.0122,0.156 -0.0094,0.156 -0.004,0.157l0.0246,0.002l0.098,0.007l0.39,0.03c0.3458,0.027 0.8622,0.067 1.5451,0.119c1.3658,0.104 3.3973,0.257 6.0605,0.455c5.3265,0.397 13.1795,0.971 23.2862,1.684c20.2133,1.426 49.4412,3.407 85.4995,5.624c72.1167,4.435 171.5547,9.817 280.8427,13.608c218.571,7.58 476.555,8.795 634.157,-16.677c210.328,-33.991 436.708,-110.444 610.488,-178.397c86.9,-33.977 160.64,-65.83 212.67,-89.188c26.01,-11.68 46.59,-21.235 60.67,-27.871c7.04,-3.318 12.46,-5.907 16.11,-7.665c1.83,-0.879 3.21,-1.551 4.14,-2.003l0.67,-0.327l0.38,-0.185l0.27,-0.13l0.07,-0.032l0.01,-0.008c0,-0.001 0,-0.001 0,-0.004c0,-0.002 0,-0.004 0,-0.008l0,-0.009c-0.01,-0.018 -0.03,-0.053 -0.06,-0.122zm10.88,35.13c0.01,0.022 0.02,0.056 0.04,0.106c0.03,0.054 0.04,0.089 0.05,0.112c0.01,0.04 0.01,0.041 0.01,0.042l-0.02,0.007l-0.07,0.03l-0.29,0.12c-0.26,0.106 -0.64,0.264 -1.15,0.473c-1.01,0.418 -2.52,1.039 -4.51,1.851c-3.98,1.626 -9.86,4.018 -17.48,7.084c-15.25,6.133 -37.46,14.963 -65.31,25.754c-55.71,21.583 -134.01,51.008 -224.35,82.381c-180.69,62.746 -409.59,133.283 -602.372,164.441c-144.471,23.349 -402.003,22.682 -623.404,16.178c-110.703,-3.252 -212.377,-7.962 -286.3757,-11.86c-36.9994,-1.949 -67.0799,-3.695 -87.9106,-4.954c-10.4154,-0.629 -18.5183,-1.136 -24.0174,-1.487c-2.7495,-0.175 -4.8481,-0.31 -6.2594,-0.402l-1.0902,-0.072l-0.5065,-0.033l-0.4033,-0.027l-0.1013,-0.006l-0.0254,-0.002c-0.0056,0 -0.0084,0 0.0025,-0.164c0.0109,-0.164 0.0137,-0.164 0.0193,-0.163l0.0254,0.001l0.1012,0.007l0.4031,0.027c0.3573,0.023 0.891,0.058 1.5966,0.104c1.411,0.092 3.5095,0.228 6.2589,0.403c5.4987,0.35 13.6013,0.858 24.0163,1.487c20.8299,1.258 50.9096,3.004 87.908,4.953c73.9965,3.898 175.6685,8.609 286.3685,11.86c221.406,6.504 478.906,7.17 623.341,-16.174c192.755,-31.153 421.625,-101.683 602.315,-164.426c90.34,-31.372 168.63,-60.796 224.34,-82.378c27.85,-10.79 50.06,-19.62 65.31,-25.753c7.62,-3.066 13.5,-5.457 17.47,-7.082c1.99,-0.813 3.5,-1.434 4.52,-1.852c0.51,-0.209 0.89,-0.367 1.14,-0.473l0.29,-0.119l0.08,-0.03l0.01,-0.008c0.01,-0.001 0.01,-0.001 0.03,0.044zm10.97,35.342c-0.06,-0.162 -0.06,-0.162 -0.07,-0.16l-0.02,0.007l-0.08,0.027l-0.31,0.11c-0.28,0.097 -0.69,0.242 -1.24,0.434l-0.79,0.277l-1.44,0.501l-1.1,0.382l-1.55,0.54c-4.3,1.492 -10.65,3.687 -18.86,6.502c-16.41,5.629 -40.24,13.733 -69.94,23.635c-59.39,19.805 -142.23,46.802 -236.02,75.569c-187.59,57.534 -418.98,122.146 -594.212,150.467c-131.302,21.221 -388.348,21.102 -612.586,15.676c-112.115,-2.713 -216.023,-6.752 -291.9025,-10.114c-37.9396,-1.68 -68.87197,-3.191 -90.3194,-4.282c-10.7237,-0.545 -19.0761,-0.986 -24.7476,-1.29c-2.8358,-0.152 -5.0013,-0.27 -6.4578,-0.35c-0.7283,-0.04 -1.2794,-0.07 -1.6483,-0.091l-0.4163,-0.023l-0.1046,-0.006l-0.0262,-0.001c-0.0058,0 -0.0087,-0.001 -0.0184,0.171c-0.0096,0.172 -0.0066,0.172 -0.0008,0.172l0.0262,0.002l0.1047,0.005l0.4163,0.024c0.3691,0.02 0.9202,0.051 1.6485,0.09c1.4567,0.08 3.6224,0.198 6.4583,0.35c5.6718,0.304 14.0245,0.745 24.7486,1.29c21.44802,1.091 52.3811,2.602 90.3216,4.283c75.8807,3.361 179.7917,7.401 291.9097,10.114c224.229,5.426 481.31,5.546 612.649,-15.68c175.257,-28.325 406.667,-92.944 594.257,-150.479c93.8,-28.767 176.64,-55.765 236.03,-75.57c29.7,-9.903 53.53,-18.008 69.95,-23.637c8.2,-2.815 14.55,-5.01 18.85,-6.502c2.15,-0.746 3.78,-1.317 4.88,-1.7l1.24,-0.434l0.32,-0.11l0.08,-0.028l0.02,-0.007c0,0 0,-0.001 0,-0.019l-0.01,-0.025c-0.01,-0.024 -0.02,-0.061 -0.04,-0.12zm10.8,35.066c0,-0.002 0.01,-0.003 0.06,0.17c0.05,0.172 0.05,0.173 0.04,0.174l-0.02,0.006l-0.08,0.025l-0.34,0.1l-1.34,0.396c-1.18,0.349 -2.94,0.868 -5.25,1.548c-4.62,1.358 -11.44,3.358 -20.23,5.921c-17.57,5.125 -43.03,12.505 -74.57,21.519c-63.07,18.029 -150.45,42.598 -247.69,68.761c-194.48,52.324 -428.39,111.024 -586.128,136.516c-118.207,19.11 -374.821,19.538 -601.864,15.191c-113.526,-2.174 -219.665,-5.541 -297.4218,-8.366c-38.8786,-1.412 -70.66201,-2.688 -92.7257,-3.612c-11.0319,-0.461 -19.6339,-0.835 -25.4779,-1.093c-2.922,-0.129 -5.1545,-0.229 -6.6566,-0.297c-0.751,-0.033 -1.3194,-0.059 -1.7001,-0.077l-0.4295,-0.019l-0.1079,-0.005l-0.0271,-0.002c-0.006,0 -0.009,0 -0.0007,-0.18c0.0082,-0.179 0.0113,-0.179 0.0173,-0.179l0.027,0.002l0.1079,0.005l0.4295,0.019c0.3805,0.018 0.9489,0.044 1.6998,0.077c1.502,0.068 3.7344,0.168 6.6562,0.297c5.8438,0.258 14.4455,0.632 25.4771,1.093c22.06315,0.924 53.8458,2.2 92.7238,3.612c77.7557,2.824 183.8927,6.192 297.4157,8.366c227.054,4.347 483.632,3.917 601.8,-15.186c157.715,-25.49 391.615,-84.185 586.095,-136.509c97.23,-26.162 184.61,-50.731 247.69,-68.76c31.53,-9.014 56.99,-16.393 74.56,-21.518c8.79,-2.563 15.61,-4.562 20.23,-5.921l2.55,-0.752l1.25,-0.369l1.45,-0.427l1.34,-0.395l0.33,-0.1l0.09,-0.025l0.02,-0.006zm11.03,35.406c-0.05,-0.182 -0.05,-0.182 -0.06,-0.181l-0.02,0.006l-0.09,0.023l-0.36,0.09l-1.43,0.357c-1.27,0.315 -3.16,0.783 -5.63,1.396c-4.94,1.225 -12.22,3.028 -21.59,5.339c-18.75,4.622 -45.83,11.276 -79.21,19.402c-66.76,16.252 -158.69,38.393 -259.38,61.951c-201.39,47.116 -437.83,99.897 -578.023,122.559c-105.073,16.975 -361.212,17.952 -591.104,14.684c-114.941,-1.635 -223.315,-4.33 -302.9526,-6.617c-39.819,-1.143 -72.45408,-2.184 -95.1344,-2.94c-11.3402,-0.377 -20.1916,-0.684 -26.208,-0.895c-3.0082,-0.106 -5.3077,-0.189 -6.855,-0.244l-1.1433,-0.042l-0.6083,-0.022l-0.4426,-0.016l-0.1113,-0.004l-0.0279,-0.001c-0.0062,0 -0.0093,-0.001 -0.0162,0.187c-0.0069,0.187 -0.0038,0.187 0.0024,0.188l0.0279,0.001l0.1113,0.004l0.4427,0.016c0.3923,0.014 0.978,0.035 1.7518,0.063c1.5474,0.056 3.847,0.139 6.8553,0.244c6.0166,0.212 14.8683,0.518 26.2087,0.896c22.68083,0.756 55.3165,1.797 95.1362,2.94c79.6393,2.287 188.0143,4.982 302.9583,6.617c229.878,3.268 486.056,2.293 591.169,-14.688c140.213,-22.666 376.653,-75.449 578.043,-122.565c100.7,-23.558 192.63,-45.7 259.39,-61.952c33.38,-8.126 60.46,-14.78 79.21,-19.402c9.37,-2.311 16.65,-4.114 21.59,-5.339c2.47,-0.613 4.36,-1.081 5.63,-1.397l1.43,-0.356l0.36,-0.09l0.09,-0.023l0.03,-0.006c0,0 0,0 0,-0.007c0,-0.005 0,-0.014 -0.01,-0.031c0,-0.026 -0.01,-0.07 -0.03,-0.145zm10.87,35.046c0.01,-0.001 0.01,-0.001 0.05,0.19c0.02,0.107 0.03,0.154 0.03,0.175l0,0.004l0.01,0.009l-0.01,0.003c0,0.001 0,0.002 0,0.002l-0.02,0.005l-0.1,0.02l-0.39,0.08l-1.53,0.318c-1.35,0.281 -3.36,0.699 -5.99,1.245c-5.26,1.092 -13.01,2.699 -22.97,4.758c-19.9,4.119 -48.62,10.048 -83.84,17.286c-70.44,14.476 -166.92,34.191 -271.06,55.145c-208.29,41.907 -447.24,88.772 -569.908,108.599c-45.976,7.43 -132.897,11.524 -237.402,13.488c-104.51,1.963 -226.62,1.796 -342.984,0.701c-116.363,-1.096 -226.982,-3.119 -308.5091,-4.869c-40.7637,-0.875 -74.25472,-1.682 -97.5549,-2.27c-11.65,-0.294 -20.7524,-0.533 -26.9422,-0.699c-3.0949,-0.083 -5.4617,-0.147 -7.0548,-0.191c-0.7966,-0.022 -1.3997,-0.038 -1.8036,-0.05l-0.456,-0.012l-0.1146,-0.004l-0.0287,0c-0.0064,-0.001 -0.0096,-0.001 -0.0041,-0.196c0.0055,-0.195 0.0087,-0.195 0.0151,-0.195l0.0287,0.001l0.1146,0.003l0.4558,0.013c0.404,0.011 1.007,0.028 1.8035,0.05c1.593,0.043 3.9597,0.108 7.0545,0.191c6.1897,0.166 15.2918,0.405 26.9417,0.699c23.29971,0.587 56.7902,1.394 97.5534,2.269c81.5267,1.75 192.1427,3.774 308.5047,4.869c116.362,1.096 238.468,1.263 342.972,-0.701c104.51,-1.964 191.403,-6.058 237.348,-13.483c122.66,-19.826 361.6,-66.689 569.89,-108.596c104.15,-20.954 200.62,-40.669 271.06,-55.145c35.22,-7.238 63.94,-13.166 83.84,-17.285c9.96,-2.06 17.71,-3.667 22.97,-4.759c2.63,-0.546 4.64,-0.963 6,-1.244l1.53,-0.318l0.38,-0.08l0.1,-0.021l0.02,-0.005zm10.97,35.426c-0.03,-0.201 -0.03,-0.2 -0.04,-0.199l-0.02,0.004l-0.11,0.018l-0.41,0.071l-1.62,0.279l-6.37,1.092c-5.58,0.959 -13.8,2.369 -24.34,4.176c-21.07,3.615 -51.41,8.816 -88.47,15.164c-74.13,12.696 -175.15,29.979 -282.75,48.325c-215.19,36.692 -456.67,77.638 -561.818,94.653c-39.381,6.366 -122.878,10.069 -225.989,12.04c-103.105,1.971 -225.805,2.211 -343.582,1.655c-117.776,-0.556 -230.627,-1.908 -314.0348,-3.121c-41.7038,-0.607 -76.04649,-1.179 -99.9632,-1.599c-11.9584,-0.21 -21.3103,-0.382 -27.6726,-0.502c-3.1811,-0.06 -5.6148,-0.106 -7.2533,-0.138l-1.8552,-0.036l-0.469,-0.009l-0.1179,-0.003l-0.0296,0c-0.0065,-0.001 -0.0098,-0.001 -0.0139,0.202c-0.004,0.204 -0.0007,0.204 0.0059,0.204l0.0295,0l0.118,0.003l0.469,0.009l1.8554,0.036c1.6385,0.032 4.0723,0.079 7.2535,0.138c6.3624,0.12 15.7145,0.292 27.673,0.502c23.91713,0.421 58.2603,0.992 99.9645,1.599c83.4087,1.213 196.2617,2.565 314.0397,3.121c117.777,0.556 240.481,0.316 343.59,-1.655c103.104,-1.971 186.632,-5.673 226.047,-12.045c105.143,-17.015 346.633,-57.961 561.823,-94.654c107.6,-18.346 208.62,-35.628 282.75,-48.324c37.06,-6.348 67.4,-11.55 88.47,-15.164c10.54,-1.808 18.76,-3.218 24.34,-4.177l6.36,-1.092l1.63,-0.279l0.41,-0.07l0.1,-0.018l0.03,-0.005c0.01,-0.001 0.01,-0.001 -0.03,-0.201zm10.89,35.028c0.01,-0.001 0.01,-0.001 0.04,0.208c0.01,0.074 0.01,0.123 0.02,0.153c0,0.02 0,0.032 0,0.04c0,0.016 0,0.016 0,0.017l-0.03,0.004l-0.11,0.015l-0.43,0.061l-1.73,0.24l-6.73,0.941c-5.91,0.825 -14.59,2.04 -25.71,3.596c-22.24,3.112 -54.21,7.59 -93.11,13.051c-77.81,10.923 -183.38,25.781 -294.43,41.525c-222.09,31.488 -466.09,66.515 -553.708,80.677c-32.85,5.31 -112.986,8.618 -214.691,10.595c-101.713,1.977 -225.016,2.623 -344.215,2.606c-119.199,-0.017 -234.293,-0.698 -319.5881,-1.374c-42.6475,-0.339 -77.8451,-0.676 -102.3808,-0.928c-12.2679,-0.127 -21.8703,-0.232 -28.4057,-0.305c-3.2677,-0.037 -5.7687,-0.066 -7.4528,-0.086l-1.9071,-0.022l-0.4823,-0.006l-0.1213,-0.001l-0.0304,-0.001c-0.0067,0 -0.0101,0 -0.0076,-0.211c0.0026,-0.211 0.006,-0.211 0.0127,-0.211l0.0304,0.001l0.1213,0.001l0.4822,0.006l1.907,0.023c1.684,0.019 4.185,0.048 7.4526,0.085c6.5354,0.073 16.1376,0.179 28.4053,0.305c24.5355,0.252 59.7327,0.59 102.3798,0.928c85.2938,0.676 200.3878,1.357 319.5848,1.374c119.198,0.018 242.498,-0.628 344.207,-2.606c101.716,-1.977 181.818,-5.286 214.632,-10.59c87.625,-14.162 331.625,-49.19 553.715,-80.678c111.05,-15.743 216.62,-30.602 294.43,-41.525c38.91,-5.461 70.87,-9.939 93.11,-13.051l12.4,-1.735c5.36,-0.75 9.82,-1.373 13.31,-1.861l6.74,-0.941l1.72,-0.24l0.43,-0.061l0.11,-0.015l0.03,-0.004zm10.96,35.443c-0.02,-0.217 -0.03,-0.217 -0.03,-0.216l-0.03,0.003l-0.12,0.013l-0.46,0.051l-1.81,0.202l-7.11,0.789c-6.23,0.692 -15.38,1.711 -27.08,3.015c-23.41,2.609 -57,6.361 -97.75,10.935c-81.49,9.147 -191.61,21.579 -306.11,34.719c-228.99,26.28 -475.52,55.394 -545.628,66.724c-26.243,4.24 -102.94,7.153 -203.252,9.136c-100.301,1.983 -224.189,3.035 -344.795,3.557c-120.607,0.522 -237.93,0.514 -325.1021,0.375c-43.586,-0.069 -79.6341,-0.171 -104.78567,-0.256c-12.57583,-0.042 -22.42743,-0.08 -29.13513,-0.108c-3.3539,-0.014 -5.9217,-0.025 -7.6511,-0.032l-1.9587,-0.009l-0.4954,-0.002l-0.1246,-0.001l-0.0312,0c-0.0069,0 -0.0104,0 -0.0115,0.219c-0.001,0.218 0.0025,0.218 0.0094,0.218l0.0313,0.001l0.1246,0l0.4954,0.003l1.9587,0.008c1.7295,0.008 4.2974,0.019 7.6513,0.033c6.7078,0.027 16.5595,0.065 29.13545,0.107c25.15185,0.085 61.20015,0.187 104.78645,0.257c87.1728,0.138 204.4968,0.147 325.1038,-0.375c120.608,-0.522 244.498,-1.575 344.803,-3.558c100.295,-1.982 177.032,-4.895 203.312,-9.141c70.089,-11.328 316.609,-40.44 545.609,-66.721c114.5,-13.14 224.62,-25.572 306.11,-34.719c40.75,-4.574 74.34,-8.326 97.74,-10.935c11.71,-1.304 20.86,-2.323 27.09,-3.015l7.1,-0.789l1.82,-0.202l0.46,-0.051l0.12,-0.013l0.03,-0.003c0,-0.001 0.01,-0.001 -0.02,-0.219zm10.9,35.012c0,-0.001 0.01,-0.001 0.03,0.225c0,0.096 0.01,0.151 0.01,0.183c0,0.043 0,0.043 -0.01,0.043l-0.03,0.003l-0.12,0.01l-0.48,0.041l-1.91,0.163l-7.48,0.637c-6.55,0.559 -16.17,1.381 -28.46,2.433c-24.57,2.105 -59.78,5.13 -102.37,8.814c-85.18,7.367 -199.84,17.368 -317.79,27.903c-235.9,21.07 -484.94,44.271 -537.503,52.804c-9.866,1.595 -33.138,3.021 -66.291,4.298c-33.16,1.277 -76.222,2.405 -125.677,3.4c-98.912,1.991 -223.406,3.45 -345.436,4.511c-122.031,1.062 -241.6,1.725 -330.661,2.123c-44.5301,0.199 -81.4336,0.332 -107.20448,0.415c-12.88542,0.042 -22.98772,0.07 -29.86872,0.089c-3.4404,0.01 -6.0756,0.016 -7.8506,0.021l-2.0106,0.005l-0.5086,0.001l-0.1279,0l-0.0321,0c-0.0071,0 -0.0107,0 -0.0112,-0.226c-0.0006,-0.227 0.003,-0.227 0.0102,-0.227l0.032,0l0.1279,0l0.5086,-0.002l2.0106,-0.005c1.775,-0.004 4.4101,-0.011 7.8505,-0.02c6.8809,-0.019 16.9831,-0.048 29.86846,-0.089c25.77074,-0.083 62.67394,-0.216 107.20394,-0.415c89.061,-0.398 208.628,-1.061 330.659,-2.123c122.03,-1.061 246.522,-2.521 345.431,-4.511c49.454,-0.995 92.512,-2.123 125.668,-3.4c33.163,-1.277 56.404,-2.703 66.237,-4.292c52.585,-8.536 301.645,-31.74 537.535,-52.808c117.95,-10.535 232.61,-20.536 317.79,-27.904c42.59,-3.683 77.81,-6.709 102.37,-8.813c12.29,-1.052 21.91,-1.874 28.46,-2.433l7.48,-0.637l1.91,-0.163l0.48,-0.041l0.13,-0.011l0.03,-0.002zm10.92,35.31l0,-0.042c0,-0.041 -0.01,-0.041 -0.01,-0.041l-0.03,0.002l-0.13,0.008l-0.51,0.032l-2.01,0.124l-7.84,0.485c-6.88,0.426 -16.97,1.052 -29.83,1.853c-25.74,1.602 -62.58,3.904 -107.01,6.7c-88.86,5.594 -208.06,13.17 -329.46,21.1c-121.4,7.931 -244.99,16.215 -342.61,23.225c-97.61,7.009 -169.273,12.745 -186.807,15.58l0.037,0.231l-0.037,-0.231c-6.548,1.063 -27.294,2.13 -58.613,3.18c-31.31,1.051 -73.166,2.084 -121.918,3.084c-97.503,2 -222.582,3.867 -346.02,5.467c-123.438,1.6 -245.234,2.934 -336.171,3.867c-45.4685,0.467 -83.2221,0.834 -109.6086,1.084c-13.1932,0.125 -23.5447,0.221 -30.5978,0.285c-3.5266,0.033 -6.2286,0.057 -8.0489,0.074l-2.0622,0.018l-0.5218,0.005l-0.1312,0.001l-0.0329,0c-0.0073,0 -0.011,0 -0.0089,0.235c0.0021,0.234 0.0058,0.234 0.0131,0.234l0.0329,0l0.1312,-0.002l0.5218,-0.004l2.0622,-0.019c1.8204,-0.016 4.5224,-0.041 8.049,-0.073c7.0532,-0.065 17.4047,-0.16 30.59794,-0.285c26.38656,-0.25 64.14026,-0.617 109.60916,-1.084c90.937,-0.933 212.734,-2.267 336.172,-3.867c123.439,-1.6 248.519,-3.467 346.024,-5.467c48.752,-1 90.611,-2.034 121.924,-3.084c31.302,-1.05 52.087,-2.117 58.672,-3.187c17.507,-2.83 89.142,-8.564 186.772,-15.575c97.61,-7.009 221.2,-15.294 342.6,-23.224c121.4,-7.93 240.6,-15.506 329.46,-21.1c44.43,-2.797 81.27,-5.098 107.01,-6.7l7.77,-0.483c4.65,-0.289 8.84,-0.55 12.55,-0.78l9.51,-0.59l7.84,-0.485l2.01,-0.125l0.51,-0.031l0.13,-0.008l0.03,-0.002c0,0 0.01,0 0,-0.058c0,-0.034 0,-0.089 -0.01,-0.176c0,-0.069 0,-0.117 -0.01,-0.151zm10.95,35.144c0,0 0.01,0 0.02,0.242c0.01,0.242 0,0.242 0,0.242l-0.04,0.002l-0.13,0.005l-0.53,0.022l-2.11,0.085l-8.21,0.334l-12.73,0.518c-5.34,0.218 -11.52,0.47 -18.48,0.754c-26.9,1.098 -65.36,2.674 -111.63,4.582c-92.55,3.817 -216.3,8.966 -341.15,14.291c-124.85,5.325 -250.79,10.827 -347.72,15.352c-48.46,2.263 -89.66,4.281 -119.85,5.911c-30.192,1.63 -49.338,2.87 -53.702,3.575c-1.66,0.27 -7.069,0.579 -15.722,0.922c-8.664,0.344 -20.6,0.723 -35.334,1.132c-29.467,0.816 -70.126,1.75 -118.177,2.75c-96.103,2 -221.778,4.267 -346.632,6.401c-124.853,2.133 -248.886,4.134 -341.706,5.6c-46.4094,0.734 -85.0158,1.334 -112.0197,1.751c-13.502,0.208 -24.1033,0.37 -31.3292,0.481c-3.6129,0.055 -6.382,0.097 -8.2478,0.126l-2.1139,0.032l-0.535,0.008l-0.1346,0.002l-0.0337,0c-0.0075,0.001 -0.0113,0.001 -0.0149,-0.241c-0.0037,-0.243 0,-0.243 0.0076,-0.243l0.0337,0l0.1345,-0.002l0.535,-0.008l2.1139,-0.033c1.8658,-0.028 4.6349,-0.07 8.2478,-0.125c7.2258,-0.111 17.8272,-0.273 31.32913,-0.482c27.00387,-0.416 65.61017,-1.017 112.02017,-1.75c92.819,-1.467 216.852,-3.467 341.705,-5.601c124.853,-2.133 250.527,-4.4 346.63,-6.4c48.051,-1 88.708,-1.934 118.174,-2.751c14.733,-0.408 26.667,-0.787 35.327,-1.131c8.671,-0.344 14.041,-0.652 15.664,-0.916c4.397,-0.711 23.581,-1.952 53.76,-3.581c30.18,-1.63 71.39,-3.648 119.85,-5.911c96.92,-4.525 222.87,-10.027 347.72,-15.352c124.85,-5.325 248.6,-10.474 341.15,-14.291c46.27,-1.908 84.73,-3.484 111.64,-4.582c6.93,-0.284 13.1,-0.535 18.44,-0.753l2.26,-0.092l10.5,-0.427l8.21,-0.334l2.11,-0.085l0.53,-0.022l0.13,-0.005l0.04,-0.002zm10.91,35.229l-2036.5536,43.194l0.0106,0.5l2036.553,-43.194l-0.01,-0.5z" clip-rule="evenodd" fill-rule="evenodd"/>
  <path stroke="none" id="svg_2" fill="#0FC45E" d="m580.239,213.35389c117.367,-80.0512 245.365,-167.35388 379.761,-167.35388c134.4,0 262.39,87.30267 379.76,167.35388c63.41,43.24831 123.71,84.37879 180.24,108.48395c115,49.03784 274,-3.06486 426,-140.90409l0,432.06625l-770,0l-207,0l-8,0l-217,0l-770,0l0,-432.06625c152,137.83923 311,189.94193 426,140.90409c56.532,-24.10516 116.834,-65.23565 180.239,-108.48395z" clip-rule="evenodd" fill-rule="evenodd"/>
 </g>
</svg>